<svg id="Capa_2" data-name="Capa 2" xmlns="http://www.w3.org/2000/svg" viewBox="0 0 227.95 60"><defs><style>.cls-1{fill:#fff;}</style></defs><path class="cls-1" d="M54.5,22.15a40,40,0,0,0,3.63-3.38c2.84-3.34,6.25-5.44,10.76-5.27a8.68,8.68,0,0,1,6.27,2.66,5.61,5.61,0,0,1,0,7.39,2.22,2.22,0,0,1-2.81.31,2.14,2.14,0,0,1-.72-2.64c.84-2,.48-2.72-1.68-3.26-3.6-.9-7.75,1.35-9.45,5.3a13.88,13.88,0,0,0-.11,11.07c1,2.44,3.61,3.48,6.7,2.75,3.35-.79,6-2.82,8.46-5a5.3,5.3,0,0,0,1.85-3.83c.57-5.84,3.25-10.48,8.8-13A10.16,10.16,0,0,1,99.82,20.7l.46,1.05c2-.76,2.25-1.09,2.16-2.94a23,23,0,0,1,1.28-8.27c.48-1.44,1.6-2.08,2.8-1.66s1.72,1.53,1.26,3a16.12,16.12,0,0,0-.93,7.69c.47,2.6,1.81,3.86,4.64,4a29.08,29.08,0,0,0,5.41-.47c.3,0,.66-.62.75-1,.83-3.66,1.49-7.36,2.43-11,1.31-5.05,4.35-8.5,9.66-9.64a8.19,8.19,0,0,1,9.89,9.41c-.81,4.92-3.91,8.16-7.82,10.8a36.3,36.3,0,0,1-9.67,4.41A1.54,1.54,0,0,0,121,27.4c-.79,3.17-1.64,6.33-2.43,9.51a1.09,1.09,0,0,0,.13.9c2.47,2.21,4.88,4.5,7.5,6.52A17.17,17.17,0,0,0,135.07,48,10.84,10.84,0,0,0,142.35,46a2.27,2.27,0,0,1,3.11.17,2.23,2.23,0,0,1-.69,3.36c-4.65,3.2-9.64,3.47-14.81,1.61a31.51,31.51,0,0,1-11.69-7.9c-.61-.61-1.25-1.19-1.87-1.78a36.8,36.8,0,0,1-2.49,2.81c-2.73,2.52-5.89,4-9.63,2.81a8.71,8.71,0,0,1-3.45-2.17,5.36,5.36,0,0,1,.6-8.06c3.58-2.92,7.62-3.41,11.95-2,.33.11.66.24,1.26.47.68-2.52,1.34-5,2.08-7.71-4.72.59-9.09.73-12.38-3.05-1,.51-1.92.93-2.77,1.48a1.66,1.66,0,0,0-.53,1.13c-.5,5.43-2.65,9.94-7.44,12.81C88.06,43.31,82,41.6,78.81,36c-.12-.2-.25-.39-.25-.39-2.45,1.56-4.79,3.23-7.31,4.58a12.08,12.08,0,0,1-8,1.25c-4.24-.8-6.88-3.72-7.73-8.39-.22-1.24-.34-2.49-.57-3.76A16.41,16.41,0,0,1,49,39.06a11.05,11.05,0,0,1-11.14,1.79,26.36,26.36,0,0,0,6.24,7.65c6.83,5.71,14.8,7.75,23.54,7.12a53.29,53.29,0,0,0,21.21-6.25c1.34-.71,2.59-.44,3.2.65s.18,2.4-1.19,3.13c-8.76,4.62-18.06,7.31-28,6.78-13.57-.72-23.84-6.9-30-19.29-.4-.81-.68-1.67-1-2.55-1.3,1-2.65,2.16-4.05,3.19A23.38,23.38,0,0,1,17.08,46C10,47,3.54,43.36,1.52,36.52c-2.87-9.67-1.8-19,4.29-27.29a18.58,18.58,0,0,1,15.53-8,14,14,0,0,1,8.37,2.56c2.8,2.05,3.79,4.68,2.76,8a22.26,22.26,0,0,1-2.31,4.76,2,2,0,0,1-3,.56,2.15,2.15,0,0,1-.47-3,21.22,21.22,0,0,0,1.68-3.5A2.53,2.53,0,0,0,27.1,7.22C23.27,4.82,19.29,5,15.34,6.85a17.12,17.12,0,0,0-8.65,9.2A27.39,27.39,0,0,0,5.4,34.71,9.84,9.84,0,0,0,17.66,41.6c4.68-1.19,8.3-4.1,11.8-7.24a5.23,5.23,0,0,0,2-4.53A14.92,14.92,0,0,1,38.77,16,10.24,10.24,0,0,1,53.7,20.42C53.92,20.88,54.13,21.34,54.5,22.15Zm-4.47,1c-1.1-4-5.68-6.18-9.85-3A11.26,11.26,0,0,0,35.8,31.5c.51,3.31,2.66,5.48,5.66,5.82a6.49,6.49,0,0,0,4.73-1.51,11.37,11.37,0,0,0,4.5-8.33c-2.14-.26-4.14-.41-6.1-.78A2.14,2.14,0,0,1,42.71,24c.35-1.21,1.45-1.68,3-1.4S48.46,22.94,50,23.15Zm46,0a5.88,5.88,0,0,0-7.13-4.33c-6.25,1.65-9.53,10.8-5.72,16a5.41,5.41,0,0,0,5.43,2.42c4.29-.64,7.92-5.18,8-10-.42,0-.85,0-1.27,0-1.61-.16-3.23-.25-4.81-.54A2.12,2.12,0,0,1,88.61,24c.34-1.24,1.42-1.72,2.94-1.44S94.42,22.94,96,23.16Zm26-1.93.47.22c4-1.43,7.84-3.22,10.59-6.59a11.69,11.69,0,0,0,2.19-4.49,3.83,3.83,0,0,0-4.67-4.68c-2.57.51-4.71,1.84-5.54,4.32C123.88,13.67,123.07,17.48,122.07,21.23Zm-9.49,18a7.75,7.75,0,0,0-8.41.93,1.2,1.2,0,0,0-.13,1.94,3.46,3.46,0,0,0,3.79.91A8.66,8.66,0,0,0,112.58,39.25Z"/><path class="cls-1" d="M199.32,30.4C199,34,201.6,36.81,205.49,37c3.22.16,5.74-1.26,7.92-3.4a30.63,30.63,0,0,0,2.68-3.3,2.23,2.23,0,0,1,3-.72,2.1,2.1,0,0,1,.68,2.91c-2.69,4.18-6.09,7.58-11.17,8.51-5.39,1-9.85-.57-12.71-5.49a33,33,0,0,1-2.92,3.7,10.86,10.86,0,0,1-3.5,2.32A5.59,5.59,0,0,1,182.53,39c-.33-.53-.6-1.11-1-1.81-.28.32-.53.59-.76.88-3.34,4.27-9.72,5.91-13.6-.24a10,10,0,0,1-6.34,3.27,6.91,6.91,0,0,1-6.25-2.77,37.8,37.8,0,0,1-3.83,2.31A10.16,10.16,0,0,1,137,35.44c-3.39-7.23.32-17.14,7.57-20.18a10.13,10.13,0,0,1,13,4.13c.16.26.34.51.6.91.39-1.1.72-2.05,1.07-3a2.15,2.15,0,1,1,4,1.42q-2.5,7.28-5,14.53c-.38,1.08-.57,2.08.35,3a2.8,2.8,0,0,0,3,.4,6.44,6.44,0,0,0,3.29-2.77c2.63-3.71,4.31-7.9,6-12.08,1-2.53,1.88-5.1,2.88-7.82h-4c-1.91,0-2.91-.75-2.9-2.16s1-2.11,2.94-2.12c1.47,0,2.93,0,4.39,0a1.09,1.09,0,0,0,1.26-.93c.66-2.27,1.39-4.53,2.1-6.79C178,.4,179-.28,180.25.1s1.8,1.52,1.3,3.17c-.63,2.07-1.27,4.14-2,6.37,2.94,0,5.77,0,8.59,0,.24,0,.58-.47.68-.79.71-2.09,1.37-4.2,2-6.3.48-1.46,1.49-2.06,2.78-1.66A2.13,2.13,0,0,1,195,3.73c-.57,1.92-1.18,3.83-1.83,5.93h4.74c1.59,0,2.58.85,2.56,2.15s-1,2.12-2.6,2.12c-1.74,0-3.49.05-5.22,0-.74,0-1,.26-1.24.91-2,5.24-4.16,10.42-6.07,15.68a7.38,7.38,0,0,0,1,6.45,1.32,1.32,0,0,0,2,.43,10.06,10.06,0,0,0,2.82-2.77A92.56,92.56,0,0,0,195.7,25c1.23-3.09,2.58-6,5-8.35a10.89,10.89,0,0,1,10.48-3c6,1.43,7,7.74,3.17,11.88-2.55,2.76-6,3.73-9.54,4.27C203,30.12,201.22,30.21,199.32,30.4Zm-44.11-4c-.1-.71-.16-1.54-.33-2.34-1.16-5.22-6.23-7-10.47-3.79a11.66,11.66,0,0,0-4,12.08c1.36,4.68,5.66,6.36,9.74,3.72C153.56,33.87,154.91,30.47,155.21,26.42Zm32-12.48c-2.75,0-5.32.05-7.88,0-.92,0-1.26.29-1.58,1.13-2.2,5.62-4.43,11.23-6.76,16.8a4.39,4.39,0,0,0,.39,4.36,2.68,2.68,0,0,0,3.91.93,9.45,9.45,0,0,0,2.59-2.37c2.93-3.95,4.66-8.51,6.45-13C185.33,19.21,186.22,16.64,187.21,13.94Zm12.94,11.9a3.19,3.19,0,0,0,.78.13A66.73,66.73,0,0,0,208,24.58a9.51,9.51,0,0,0,3.41-2.23,2.63,2.63,0,0,0,.77-3,2.76,2.76,0,0,0-2.59-1.59,8.26,8.26,0,0,0-2.58.18C203,19,201.45,22.23,200.15,25.84Z"/><path class="cls-1" d="M225.37,13.89a2.58,2.58,0,1,1-2.59,2.56A2.56,2.56,0,0,1,225.37,13.89Zm0,4.77a2.2,2.2,0,1,0-2.12-2.21A2.12,2.12,0,0,0,225.37,18.66Zm-1-3.7h1.16c.72,0,1.05.28,1.05.86a.78.78,0,0,1-.79.82l.86,1.32h-.5l-.82-1.29h-.49V18h-.47Zm.47,1.33h.48c.42,0,.8,0,.8-.49s-.35-.46-.66-.46h-.62Z"/></svg>